<?xml version="1.0" encoding="utf-8"?>
<!-- Generator: Adobe Illustrator 19.0.0, SVG Export Plug-In . SVG Version: 6.00 Build 0)  -->
<svg version="1.1" id="Untitled-Page_x25_201" xmlns="http://www.w3.org/2000/svg" xmlns:xlink="http://www.w3.org/1999/xlink"
	 x="0px" y="0px" viewBox="-383 384.4 85 84" style="enable-background:new -383 384.4 85 84;" xml:space="preserve">
<style type="text/css">
	.st0{fill:#282728;}
</style>
<g>
	<g>
		<path class="st0" d="M-314.1,398.5c-0.3-0.7-0.7-1.4-1.2-2.1l0-0.1l-4.1-7.1h-25l-5.4,9.3h25l15.9,27.5l0,0l5.3,9.2l5.4-9.3
			L-314.1,398.5z"/>
		<polygon class="st0" points="-351.1,389.1 -361.8,389.1 -383,425.8 -370.5,447.4 -359.8,447.4 -372.3,425.8 		"/>
	</g>
	<polygon class="st0" points="-324.9,453.2 -367.2,453.2 -361.8,462.4 -319.5,462.4 -307.1,440.9 -312.4,431.6 	"/>
	<path class="st0" d="M-312.5,425.6l-4.7-8.1l-9.6-16.2h-6.3l0,0h-21.8l-14.1,24.5l14.1,24.5h28.3l2.8-4.9h0L-312.5,425.6z
		 M-356.1,411.6c2.1-5.8,2.8-6.3,8.4-6.3l0.3,0c4.2,0,8.3,0,12.5-0.1c0.3,0,0.5,0,0.8,0c4.9,0,5.8,1,8,6.4l0.4,1l-1,0.4
		c-0.3,0.1-0.6,0.2-0.8,0.4c-0.7,0.3-1.5,0.7-2.3,0.8c-3.3,0.4-4.9,1.9-5.2,4.9c-0.1,0.7-0.3,1.4-0.4,2c-0.1,0.5-0.3,0.9-0.3,1.3
		c-0.5,3-2.2,4.4-5.4,4.4c-3.9,0-4.8-2.5-5.1-4.4c0-0.1,0-0.2-0.1-0.3c-0.1-0.2-0.1-0.5-0.1-0.7c-0.6-5-2.8-7.3-7.1-7.6
		c-0.6,0-1.1-0.4-1.5-0.6c-0.1-0.1-0.2-0.2-0.4-0.2l-0.8-0.4L-356.1,411.6z M-354.8,442.7c-0.3-0.5-0.7-1-1-1.5
		c-0.8-1.2-1.6-2.4-2.4-3.7c-0.5-0.8-0.9-1.7-1.3-2.5c-0.7-1.4-1.4-2.7-2.3-3.8c-3.1-3.7-3-7.4,0.1-11c1.4-1.6,2.8-3,4.2-2.9
		c1.7,0.2,5.2,0.5,6.3,4.5c0.2,0.8,0.4,1.7,0.6,2.5c0.8,3.6,1.5,6.9,5.3,9l1.3,0.7l-10.2,9.7L-354.8,442.7z M-348.6,445.8l1.4-1.8
		c2.5-3.1,4.2-5,6.1-5c2,0,3.4,1.9,5.7,5l1.2,1.7H-348.6z M-327.7,443.1l-0.7,1.2l-9.8-9.9l1.1-0.7c3.7-2.3,4.5-6,5.3-10
		c0.1-0.7,0.3-1.3,0.4-2c0.8-3.5,3.9-4,5.9-4.3l0.1,0c0.1,0,0.2,0,0.3,0c1.3,0,2.5,1.1,4,2.8c3.1,3.4,3.1,7.1,0.1,11.2
		c-1.7,2.4-3.2,5-4.7,7.7C-326.1,440.4-326.9,441.7-327.7,443.1z"/>
</g>
</svg>
