<?xml version="1.0" encoding="utf-8"?>
<!-- Generator: Adobe Illustrator 19.0.0, SVG Export Plug-In . SVG Version: 6.00 Build 0)  -->
<svg version="1.1" id="Untitled-Page_x25_201" xmlns="http://www.w3.org/2000/svg" xmlns:xlink="http://www.w3.org/1999/xlink"
	 x="0px" y="0px" viewBox="-383 384.4 85 84" style="enable-background:new -383 384.4 85 84;" xml:space="preserve">
<style type="text/css">
	.st0{fill:none;enable-background:new    ;}
	.st1{fill:#0071CE;}
	.st2{fill:#FFFFFF;}
</style>
<path class="st0" d="M-383,384.4"/>
<g>
	<g>
		<path class="st1" d="M-316.8,400.1c-0.3-0.6-0.7-1.3-1.1-2l0-0.1l-3.8-6.6h-23.1l-5,8.6h23.1l14.7,25.5l0,0l4.9,8.5l5-8.7
			L-316.8,400.1z"/>
		<polygon class="st1" points="-351.1,391.4 -361,391.4 -380.6,425.4 -369,445.4 -359.1,445.4 -370.7,425.4 		"/>
	</g>
	<polygon class="st1" points="-326.7,450.7 -366,450.7 -361,459.3 -321.8,459.3 -310.2,439.4 -315.2,430.7 	"/>
	<path class="st2" d="M-315.2,425.2l-4.3-7.5l-8.9-15h-5.8l0,0h-20.2l-13.1,22.7l13.1,22.7h26.2l2.6-4.6h0L-315.2,425.2z
		 M-355.7,412.2c1.9-5.3,2.6-5.8,7.8-5.8l0.3,0c3.9,0,7.7,0,11.6-0.1c0.3,0,0.5,0,0.7,0c4.6,0,5.3,1,7.4,5.9l0.4,0.9l-0.9,0.4
		c-0.3,0.1-0.5,0.2-0.8,0.3c-0.6,0.3-1.4,0.6-2.1,0.7c-3,0.3-4.5,1.7-4.8,4.6c-0.1,0.7-0.2,1.3-0.4,1.9c-0.1,0.4-0.2,0.8-0.3,1.2
		c-0.5,2.8-2.1,4.1-5,4.1c-3.6,0-4.5-2.3-4.8-4.1c0-0.1,0-0.2-0.1-0.3c-0.1-0.2-0.1-0.4-0.1-0.7c-0.6-4.6-2.6-6.8-6.5-7.1
		c-0.6,0-1-0.3-1.4-0.6c-0.1-0.1-0.2-0.1-0.3-0.2l-0.8-0.4L-355.7,412.2z M-354.4,441c-0.3-0.5-0.6-0.9-0.9-1.4
		c-0.7-1.1-1.5-2.2-2.2-3.4c-0.4-0.8-0.8-1.5-1.2-2.3c-0.6-1.3-1.3-2.5-2.1-3.5c-2.8-3.4-2.8-6.8,0.1-10.2c1.3-1.5,2.6-2.8,3.9-2.6
		c1.6,0.1,4.8,0.5,5.8,4.2c0.2,0.8,0.4,1.5,0.5,2.3c0.7,3.3,1.4,6.4,4.9,8.3l1.2,0.6l-9.5,9L-354.4,441z M-348.7,443.9l1.3-1.6
		c2.3-2.9,3.9-4.6,5.6-4.6c1.8,0,3.2,1.8,5.3,4.6l1.1,1.6H-348.7z M-329.3,441.4l-0.7,1.1l-9.1-9.2l1.1-0.7c3.4-2.1,4.1-5.6,4.9-9.2
		c0.1-0.6,0.3-1.2,0.4-1.8c0.8-3.3,3.6-3.7,5.5-4l0.1,0c0.1,0,0.2,0,0.3,0c1.2,0,2.3,1,3.7,2.6c2.9,3.2,2.9,6.6,0.1,10.4
		c-1.6,2.2-2.9,4.6-4.3,7.2C-327.9,438.9-328.6,440.1-329.3,441.4z"/>
</g>
</svg>
