<?xml version="1.0" encoding="utf-8"?>
<!-- Generator: Adobe Illustrator 19.0.0, SVG Export Plug-In . SVG Version: 6.00 Build 0)  -->
<svg version="1.1" id="Untitled-Page_x25_201" xmlns="http://www.w3.org/2000/svg" xmlns:xlink="http://www.w3.org/1999/xlink"
	 x="0px" y="0px" viewBox="-383 384.4 85 84" style="enable-background:new -383 384.4 85 84;" xml:space="preserve">
<style type="text/css">
	.st0{fill:#0071CE;}
	.st1{fill:#A0A1A2;}
</style>
<g>
	<g>
		<path class="st0" d="M-696.8,783.5c-0.3-0.7-0.7-1.4-1.2-2.1v-0.1l-4.1-7.2h-25.1l-5.4,9.3h25.1l15.9,27.6l0,0l5.3,9.2l5.4-9.4
			L-696.8,783.5z"/>
		<polygon class="st0" points="-734,774.1 -744.8,774.1 -766,810.9 -753.5,832.7 -742.7,832.7 -755.2,810.9 		"/>
	</g>
	<polygon class="st0" points="-707.6,838.4 -750.1,838.4 -744.8,847.8 -702.3,847.8 -689.8,826.1 -695.1,816.8 	"/>
	<path class="st1" d="M-695.2,810.8l-4.7-8.1l-9.7-16.3h-6.3l0,0h-21.8l-14.2,24.6l14.2,24.6h28.4l2.8-4.9l0,0L-695.2,810.8z
		 M-739,796.7c2.1-5.8,2.8-6.3,8.4-6.3h0.3c4.2,0,8.4,0,12.6-0.1c0.3,0,0.5,0,0.8,0c4.9,0,5.8,1.1,8,6.4l0.4,1l-1,0.4
		c-0.3,0.1-0.6,0.2-0.8,0.4c-0.7,0.3-1.5,0.7-2.3,0.8c-3.3,0.4-4.9,1.9-5.2,4.9c-0.1,0.7-0.3,1.4-0.4,2c-0.1,0.5-0.3,0.9-0.3,1.3
		c-0.5,3-2.3,4.4-5.4,4.4c-3.9,0-4.8-2.5-5.2-4.4c0-0.1,0-0.2-0.1-0.4c-0.1-0.2-0.1-0.5-0.1-0.7c-0.6-5-2.8-7.4-7.1-7.7
		c-0.6,0-1.1-0.4-1.5-0.6c-0.1-0.1-0.2-0.2-0.4-0.2l-0.8-0.4L-739,796.7z M-737.6,827.9c-0.3-0.5-0.7-1-1-1.5
		c-0.8-1.2-1.6-2.4-2.4-3.7c-0.5-0.8-0.9-1.7-1.3-2.5c-0.7-1.4-1.4-2.7-2.3-3.8c-3.1-3.7-3-7.4,0.1-11c1.4-1.6,2.8-3,4.2-2.9
		c1.7,0.2,5.3,0.5,6.3,4.5c0.2,0.8,0.4,1.7,0.6,2.5c0.8,3.6,1.5,7,5.3,9l1.3,0.7l-10.3,9.7L-737.6,827.9z M-731.5,831l1.4-1.8
		c2.5-3.1,4.2-5,6.1-5c2,0,3.5,1.9,5.7,5l1.2,1.7L-731.5,831L-731.5,831z M-710.4,828.3l-0.7,1.2l-9.9-10l1.1-0.7
		c3.7-2.3,4.5-6.1,5.4-10c0.1-0.7,0.3-1.3,0.4-2c0.8-3.5,3.9-4,5.9-4.4h0.1c0.1,0,0.2,0,0.3,0c1.3,0,2.5,1.1,4.1,2.8
		c3.1,3.5,3.1,7.1,0.1,11.3c-1.7,2.4-3.2,5-4.7,7.8C-708.9,825.6-709.6,826.9-710.4,828.3z"/>
</g>
</svg>
